<?xml version="1.0" encoding="UTF-8"?>
<svg xmlns="http://www.w3.org/2000/svg" xmlns:xlink="http://www.w3.org/1999/xlink" width="20px" height="20px" viewBox="0 0 20 20" version="1.1">
<g id="surface1">
<path style="fill:none;stroke-width:1.5;stroke-linecap:round;stroke-linejoin:round;stroke:rgb(0%,0%,0%);stroke-opacity:1;stroke-miterlimit:4;" d="M 3.998437 9.998437 L 0.998437 18 L 6.998437 18 Z M 3.998437 9.998437 " transform="matrix(0.833333,0,0,0.833333,0,0)"/>
<path style="fill:none;stroke-width:1.5;stroke-linecap:round;stroke-linejoin:round;stroke:rgb(0%,0%,0%);stroke-opacity:1;stroke-miterlimit:4;" d="M 3.998437 18 L 3.998437 23.001562 " transform="matrix(0.833333,0,0,0.833333,0,0)"/>
<path style="fill:none;stroke-width:1.5;stroke-linecap:round;stroke-linejoin:round;stroke:rgb(0%,0%,0%);stroke-opacity:1;stroke-miterlimit:4;" d="M 9.998437 12.501562 L 9.998437 23.001562 L 21.998437 23.001562 L 21.998437 12.501562 " transform="matrix(0.833333,0,0,0.833333,0,0)"/>
<path style=" stroke:none;fill-rule:nonzero;fill:rgb(0%,0%,0%);fill-opacity:1;" d="M 11.042969 19.167969 C 11.042969 19.511719 11.320312 19.792969 11.667969 19.792969 C 12.011719 19.792969 12.292969 19.511719 12.292969 19.167969 Z M 14.375 19.167969 C 14.375 19.511719 14.65625 19.792969 15 19.792969 C 15.34375 19.792969 15.625 19.511719 15.625 19.167969 Z M 12.082031 14.792969 L 14.582031 14.792969 L 14.582031 13.542969 L 12.082031 13.542969 Z M 11.042969 14.582031 L 11.042969 19.167969 L 12.292969 19.167969 L 12.292969 14.582031 Z M 15.625 19.167969 L 15.625 14.582031 L 14.375 14.582031 L 14.375 19.167969 Z M 14.582031 14.792969 C 14.46875 14.792969 14.375 14.699219 14.375 14.582031 L 15.625 14.582031 C 15.625 14.007812 15.160156 13.542969 14.582031 13.542969 Z M 12.082031 13.542969 C 11.507812 13.542969 11.042969 14.007812 11.042969 14.582031 L 12.292969 14.582031 C 12.292969 14.699219 12.199219 14.792969 12.082031 14.792969 Z M 12.082031 13.542969 "/>
<path style=" stroke:none;fill-rule:nonzero;fill:rgb(0%,0%,0%);fill-opacity:1;" d="M 7.09375 10.359375 C 6.832031 10.582031 6.800781 10.976562 7.027344 11.238281 C 7.25 11.503906 7.644531 11.53125 7.90625 11.308594 Z M 18.761719 11.308594 C 19.023438 11.53125 19.417969 11.503906 19.640625 11.238281 C 19.867188 10.976562 19.835938 10.582031 19.574219 10.359375 Z M 13.0625 6.066406 L 12.65625 5.589844 Z M 13.605469 6.066406 L 14.011719 5.589844 Z M 7.90625 11.308594 L 13.46875 6.539062 L 12.65625 5.589844 L 7.09375 10.359375 Z M 13.199219 6.539062 L 18.761719 11.308594 L 19.574219 10.359375 L 14.011719 5.589844 Z M 13.46875 6.539062 C 13.390625 6.605469 13.277344 6.605469 13.199219 6.539062 L 14.011719 5.589844 C 13.621094 5.257812 13.046875 5.257812 12.65625 5.589844 Z M 13.46875 6.539062 "/>
<path style=" stroke:none;fill-rule:nonzero;fill:rgb(0%,0%,0%);fill-opacity:1;" d="M 12.5 9.375 C 12.15625 9.375 11.875 9.65625 11.875 10 C 11.875 10.34375 12.15625 10.625 12.5 10.625 Z M 14.167969 10.625 C 14.511719 10.625 14.792969 10.34375 14.792969 10 C 14.792969 9.65625 14.511719 9.375 14.167969 9.375 Z M 12.5 10.625 L 14.167969 10.625 L 14.167969 9.375 L 12.5 9.375 Z M 12.5 10.625 "/>
<path style=" stroke:none;fill-rule:nonzero;fill:rgb(0%,0%,0%);fill-opacity:1;" d="M 0.832031 18.542969 C 0.488281 18.542969 0.207031 18.820312 0.207031 19.167969 C 0.207031 19.511719 0.488281 19.792969 0.832031 19.792969 Z M 8.332031 19.792969 C 8.679688 19.792969 8.957031 19.511719 8.957031 19.167969 C 8.957031 18.820312 8.679688 18.542969 8.332031 18.542969 Z M 0.832031 19.792969 L 8.332031 19.792969 L 8.332031 18.542969 L 0.832031 18.542969 Z M 0.832031 19.792969 "/>
<path style="fill:none;stroke-width:1.5;stroke-linecap:round;stroke-linejoin:round;stroke:rgb(0%,0%,0%);stroke-opacity:1;stroke-miterlimit:4;" d="M 9.567187 6.998437 C 10.195312 7.0125 10.809375 6.759375 11.264062 6.290625 C 11.723437 5.821875 11.985937 5.175 12 4.5 C 11.971875 3.867187 11.732812 3.267187 11.325 2.807812 C 10.917187 2.353125 10.36875 2.067187 9.778125 2.010937 C 9.1875 1.954687 8.601562 2.128125 8.123437 2.498437 C 7.645312 2.86875 7.307812 3.417187 7.176562 4.03125 C 6.970312 3.928125 6.75 3.876562 6.520312 3.876562 C 6.126562 3.867187 5.746875 4.026562 5.460937 4.317187 C 5.175 4.6125 5.010937 5.015625 5.001562 5.4375 C 5.010937 5.859375 5.175 6.2625 5.460937 6.553125 C 5.746875 6.848437 6.126562 7.007812 6.520312 6.998437 Z M 9.567187 6.998437 " transform="matrix(0.833333,0,0,0.833333,0,0)"/>
</g>
</svg>
