<?xml version="1.0" encoding="UTF-8"?>
<svg xmlns="http://www.w3.org/2000/svg" xmlns:xlink="http://www.w3.org/1999/xlink" width="30px" height="30px" viewBox="0 0 30 30" version="1.1">
<g id="surface1">
<path style="fill:none;stroke-width:1.5;stroke-linecap:round;stroke-linejoin:round;stroke:rgb(100%,100%,100%);stroke-opacity:1;stroke-miterlimit:4;" d="M 4 10 L 1 18 L 7 18 Z M 4 10 " transform="matrix(1.25,0,0,1.25,0,0)"/>
<path style="fill:none;stroke-width:1.5;stroke-linecap:round;stroke-linejoin:round;stroke:rgb(100%,100%,100%);stroke-opacity:1;stroke-miterlimit:4;" d="M 4 18 L 4 23 " transform="matrix(1.25,0,0,1.25,0,0)"/>
<path style="fill:none;stroke-width:1.5;stroke-linecap:round;stroke-linejoin:round;stroke:rgb(100%,100%,100%);stroke-opacity:1;stroke-miterlimit:4;" d="M 10 12.5 L 10 23 L 22 23 L 22 12.5 " transform="matrix(1.25,0,0,1.25,0,0)"/>
<path style=" stroke:none;fill-rule:nonzero;fill:rgb(100%,100%,100%);fill-opacity:1;" d="M 16.5625 28.75 C 16.5625 29.269531 16.980469 29.6875 17.5 29.6875 C 18.019531 29.6875 18.4375 29.269531 18.4375 28.75 Z M 21.5625 28.75 C 21.5625 29.269531 21.980469 29.6875 22.5 29.6875 C 23.019531 29.6875 23.4375 29.269531 23.4375 28.75 Z M 18.125 22.1875 L 21.875 22.1875 L 21.875 20.3125 L 18.125 20.3125 Z M 16.5625 21.875 L 16.5625 28.75 L 18.4375 28.75 L 18.4375 21.875 Z M 23.4375 28.75 L 23.4375 21.875 L 21.5625 21.875 L 21.5625 28.75 Z M 21.875 22.1875 C 21.703125 22.1875 21.5625 22.046875 21.5625 21.875 L 23.4375 21.875 C 23.4375 21.011719 22.738281 20.3125 21.875 20.3125 Z M 18.125 20.3125 C 17.261719 20.3125 16.5625 21.011719 16.5625 21.875 L 18.4375 21.875 C 18.4375 22.046875 18.296875 22.1875 18.125 22.1875 Z M 18.125 20.3125 "/>
<path style=" stroke:none;fill-rule:nonzero;fill:rgb(100%,100%,100%);fill-opacity:1;" d="M 10.640625 15.539062 C 10.246094 15.875 10.203125 16.46875 10.539062 16.859375 C 10.875 17.253906 11.46875 17.296875 11.859375 16.960938 Z M 28.140625 16.960938 C 28.53125 17.296875 29.125 17.253906 29.460938 16.859375 C 29.796875 16.46875 29.753906 15.875 29.359375 15.539062 Z M 19.59375 9.097656 L 18.984375 8.386719 Z M 20.40625 9.097656 L 21.015625 8.386719 Z M 11.859375 16.960938 L 20.203125 9.808594 L 18.984375 8.386719 L 10.640625 15.539062 Z M 19.796875 9.808594 L 28.140625 16.960938 L 29.359375 15.539062 L 21.015625 8.386719 Z M 20.203125 9.808594 C 20.085938 9.910156 19.914062 9.910156 19.796875 9.808594 L 21.015625 8.386719 C 20.433594 7.886719 19.566406 7.886719 18.984375 8.386719 Z M 20.203125 9.808594 "/>
<path style=" stroke:none;fill-rule:nonzero;fill:rgb(100%,100%,100%);fill-opacity:1;" d="M 18.75 14.0625 C 18.230469 14.0625 17.8125 14.480469 17.8125 15 C 17.8125 15.519531 18.230469 15.9375 18.75 15.9375 Z M 21.25 15.9375 C 21.769531 15.9375 22.1875 15.519531 22.1875 15 C 22.1875 14.480469 21.769531 14.0625 21.25 14.0625 Z M 18.75 15.9375 L 21.25 15.9375 L 21.25 14.0625 L 18.75 14.0625 Z M 18.75 15.9375 "/>
<path style=" stroke:none;fill-rule:nonzero;fill:rgb(100%,100%,100%);fill-opacity:1;" d="M 1.25 27.8125 C 0.730469 27.8125 0.3125 28.230469 0.3125 28.75 C 0.3125 29.269531 0.730469 29.6875 1.25 29.6875 Z M 12.5 29.6875 C 13.019531 29.6875 13.4375 29.269531 13.4375 28.75 C 13.4375 28.230469 13.019531 27.8125 12.5 27.8125 Z M 1.25 29.6875 L 12.5 29.6875 L 12.5 27.8125 L 1.25 27.8125 Z M 1.25 29.6875 "/>
<path style="fill:none;stroke-width:1.5;stroke-linecap:round;stroke-linejoin:round;stroke:rgb(100%,100%,100%);stroke-opacity:1;stroke-miterlimit:4;" d="M 9.565625 7 C 10.196875 7.0125 10.809375 6.759375 11.265625 6.290625 C 11.721875 5.821875 11.9875 5.175 12 4.5 C 11.971875 3.865625 11.734375 3.265625 11.325 2.809375 C 10.915625 2.35 10.365625 2.06875 9.778125 2.009375 C 9.190625 1.953125 8.603125 2.128125 8.125 2.5 C 7.646875 2.871875 7.309375 3.415625 7.175 4.03125 C 6.971875 3.928125 6.746875 3.875 6.521875 3.875 C 6.128125 3.865625 5.74375 4.025 5.459375 4.31875 C 5.175 4.6125 5.009375 5.0125 5 5.4375 C 5.009375 5.859375 5.175 6.2625 5.459375 6.55625 C 5.74375 6.846875 6.128125 7.00625 6.521875 7 Z M 9.565625 7 " transform="matrix(1.25,0,0,1.25,0,0)"/>
</g>
</svg>
